<svg width="358.7249755859375px" height="134.0275390625px" xmlns="http://www.w3.org/2000/svg" viewBox="70.63751220703125 7.986230468749994 358.7249755859375 134.0275390625" style="background: none;" preserveAspectRatio="xMidYMid"><defs><filter id="editing-neon" x="-100%" y="-100%" width="300%" height="300%"><feFlood flood-color="#00d226" result="flood"></feFlood><feComposite operator="in" in="flood" in2="SourceAlpha" result="color"></feComposite><feFlood flood-color="#00d226" result="flood2"></feFlood><feComposite operator="in" in="flood2" in2="SourceAlpha" result="color2"></feComposite><feMorphology operator="dilate" radius="2" in="color" result="dilate"></feMorphology><feGaussianBlur stdDeviation="6" in="color" result="blur1"></feGaussianBlur><feGaussianBlur stdDeviation="2.5" in="color" result="blur2"></feGaussianBlur><feGaussianBlur stdDeviation="1" in="SourceAlpha" result="blur3"></feGaussianBlur><feGaussianBlur stdDeviation="6" in="dilate" result="blur4"></feGaussianBlur><feConvolveMatrix in="color2" result="conv" order="3,3" divisor="1" kernelMatrix="1 1 1  1 1 1  1 1 1"></feConvolveMatrix><feMerge><feMergeNode in="blur1"></feMergeNode><feMergeNode in="blur2"></feMergeNode><feMergeNode in="blur4"></feMergeNode><feMergeNode in="blur3"></feMergeNode><feMergeNode in="blur3"></feMergeNode><feMergeNode in="blur3"></feMergeNode><feMergeNode in="blur3"></feMergeNode><feMergeNode in="conv"></feMergeNode><feMergeNode in="SourceGraphic"></feMergeNode></feMerge></filter></defs><g filter="url(#editing-neon)"><g transform="translate(126.30499297380447, 101.63999938964844)"><path d="M33.98-38.16L33.98-38.16L33.98-38.16Q28.15-38.16 23.90-40.10L23.90-40.10L21.60-28.44L35.50-28.44L35.50-28.44Q35.50-24.62 33.59-22.21L33.59-22.21L33.59-22.21Q31.68-19.80 28.22-19.80L28.22-19.80L28.22-19.80Q24.48-19.80 21.02-21.17L21.02-21.17L21.02-21.17Q20.30-21.46 20.23-21.53L20.23-21.53L16.13 0L0.43 0L9.58-47.52L41.69-47.52L41.69-47.52Q41.69-43.13 39.64-40.64L39.64-40.64L39.64-40.64Q37.58-38.16 33.98-38.16ZM39.17-0.36L39.17-0.36L48.24-47.52L48.24-47.52Q56.74-48.24 62.21-48.24L62.21-48.24L62.21-48.24Q67.68-48.24 71.21-47.77L71.21-47.77L71.21-47.77Q74.74-47.30 77.11-46.08L77.11-46.08L77.11-46.08Q81.86-43.78 81.86-37.44L81.86-37.44L81.86-37.44Q81.86-33.77 78.70-30.67L78.70-30.67L78.70-30.67Q75.74-27.86 72.50-27.22L72.50-27.22L72.50-27.22Q75.96-26.64 78.41-24.05L78.41-24.05L78.41-24.05Q81-21.31 81-17.06L81-17.06L81-17.06Q81-8.86 74.88-4.07L74.88-4.07L74.88-4.07Q68.76 0.72 56.74 0.72L56.74 0.72L56.74 0.72Q48.46 0.72 39.17-0.36ZM58.75-23.18L55.15-4.54L55.15-4.54Q55.80-4.46 55.94-4.46L55.94-4.46L56.59-4.46L56.59-4.46Q62.50-4.46 65.02-8.35L65.02-8.35L65.02-8.35Q66.89-11.38 66.89-16.92L66.89-16.92L66.89-16.92Q66.89-19.87 64.98-21.46L64.98-21.46L64.98-21.46Q63.07-23.04 58.75-23.18L58.75-23.18ZM69.70-37.37L69.70-37.37L69.70-37.37Q69.70-43.34 63.94-43.34L63.94-43.34L63.29-43.34L63.29-43.34Q63-43.34 62.57-43.27L62.57-43.27L59.69-28.08L60.41-28.08L60.41-28.08Q69.70-28.30 69.70-37.37ZM108.29-20.23L108.29-20.23L108.29-20.23Q110.88-24.84 110.88-29.52L110.88-29.52L110.88-29.52Q110.88-32.62 108.65-32.62L108.65-32.62L108.65-32.62Q106.92-32.62 105.12-29.66L105.12-29.66L105.12-29.66Q103.25-26.71 102.67-22.90L102.67-22.90L98.93 0L84.02 1.44L91.37-36.72L103.25-38.16L101.95-30.89L101.95-30.89Q105.48-38.16 113.40-38.16L113.40-38.16L113.40-38.16Q117.58-38.16 119.84-36.00L119.84-36.00L119.84-36.00Q122.11-33.84 122.11-29.41L122.11-29.41L122.11-29.41Q122.11-24.98 119.20-22.18L119.20-22.18L119.20-22.18Q116.28-19.37 111.31-19.37L111.31-19.37L111.31-19.37Q109.15-19.37 108.29-20.23ZM152.42-12.17L152.42-12.17L152.42-12.17Q154.22-10.94 154.22-8.24L154.22-8.24L154.22-8.24Q154.22-5.54 152.86-3.82L152.86-3.82L152.86-3.82Q151.49-2.09 149.26-0.94L149.26-0.94L149.26-0.94Q144.65 1.44 139.68 1.44L139.68 1.44L139.68 1.44Q134.71 1.44 131.80 0.36L131.80 0.36L131.80 0.36Q128.88-0.72 126.94-2.74L126.94-2.74L126.94-2.74Q123.12-6.55 123.12-13.54L123.12-13.54L123.12-13.54Q123.12-24.41 129.02-31.03L129.02-31.03L129.02-31.03Q135.36-38.16 146.38-38.16L146.38-38.16L146.38-38.16Q153.22-38.16 156.60-35.28L156.60-35.28L156.60-35.28Q159.12-33.12 159.12-29.59L159.12-29.59L159.12-29.59Q159.12-16.92 137.23-16.92L137.23-16.92L137.23-16.92Q136.94-15.05 136.94-13.46L136.94-13.46L136.94-13.46Q136.94-10.15 138.42-8.89L138.42-8.89L138.42-8.89Q139.90-7.63 142.63-7.63L142.63-7.63L142.63-7.63Q145.37-7.63 148.28-8.89L148.28-8.89L148.28-8.89Q151.20-10.15 152.42-12.17ZM137.74-20.02L137.74-20.02L137.74-20.02Q142.85-20.02 145.80-23.18L145.80-23.18L145.80-23.18Q148.75-26.21 148.75-31.03L148.75-31.03L148.75-31.03Q148.75-32.69 148.14-33.59L148.14-33.59L148.14-33.59Q147.53-34.49 146.30-34.49L146.30-34.49L146.30-34.49Q145.08-34.49 144.04-34.02L144.04-34.02L144.04-34.02Q142.99-33.55 141.91-31.97L141.91-31.97L141.91-31.97Q139.25-28.37 137.74-20.02ZM164.70-2.16L164.70-2.16L164.70-2.16Q163.01-4.03 162.25-6.98L162.25-6.98L162.25-6.98Q161.50-9.94 161.50-14.76L161.50-14.76L161.50-14.76Q161.50-19.58 163.15-23.98L163.15-23.98L163.15-23.98Q164.81-28.37 167.83-31.54L167.83-31.54L167.83-31.54Q174.02-38.16 184.25-38.16L184.25-38.16L184.25-38.16Q187.92-38.16 190.58-36.94L190.58-36.94L202.90-38.16L197.57-10.08L197.57-10.08Q197.35-9.22 197.35-7.63L197.35-7.63L197.35-7.63Q197.35-6.05 198.32-5.04L198.32-5.04L198.32-5.04Q199.30-4.03 200.74-3.89L200.74-3.89L200.74-3.89Q200.02-1.44 197.39 0L197.39 0L197.39 0Q194.76 1.44 191.81 1.44L191.81 1.44L191.81 1.44Q188.86 1.44 186.88 0.32L186.88 0.32L186.88 0.32Q184.90-0.79 184.32-2.66L184.32-2.66L184.32-2.66Q183.17-0.86 180.72 0.29L180.72 0.29L180.72 0.29Q178.27 1.44 175.00 1.44L175.00 1.44L175.00 1.44Q171.72 1.44 169.06 0.58L169.06 0.58L169.06 0.58Q166.39-0.29 164.70-2.16ZM179.89-31.39L179.89-31.39L179.89-31.39Q179.06-30.10 178.34-27.90L178.34-27.90L178.34-27.90Q177.62-25.70 176.44-19.84L176.44-19.84L176.44-19.84Q175.25-13.97 175.25-9.79L175.25-9.79L175.25-9.79Q175.25-5.62 175.90-4.39L175.90-4.39L175.90-4.39Q176.54-3.17 177.70-3.17L177.70-3.17L177.70-3.17Q180.00-3.17 181.69-5.36L181.69-5.36L181.69-5.36Q183.38-7.56 184.03-11.45L184.03-11.45L187.85-32.54L187.85-32.54Q186.34-33.84 184.57-33.84L184.57-33.84L184.57-33.84Q182.81-33.84 181.76-33.26L181.76-33.26L181.76-33.26Q180.72-32.69 179.89-31.39ZM225.36-34.13L225.36-34.13L225.36-34.13Q229.25-38.16 237.46-38.16L237.46-38.16L237.46-38.16Q241.99-38.16 244.48-35.75L244.48-35.75L244.48-35.75Q246.96-33.34 246.96-28.91L246.96-28.91L246.96-28.91Q246.96-24.48 244.48-21.35L244.48-21.35L244.48-21.35Q241.99-18.22 237.38-16.92L237.38-16.92L237.38-16.92Q237.74-15.48 238.25-13.97L238.25-13.97L239.26-11.09L239.26-11.09Q240.62-7.42 241.70-6.12L241.70-6.12L241.70-6.12Q242.78-4.82 244.22-4.39L244.22-4.39L244.22-4.39Q243.43-1.44 240.55 0.14L240.55 0.14L240.55 0.14Q238.25 1.44 235.08 1.44L235.08 1.44L235.08 1.44Q225.79 1.44 224.57-12.89L224.57-12.89L224.57-12.89Q224.35-14.90 224.35-16.92L224.35-16.92L224.35-16.92Q227.95-17.93 230.47-21.31L230.47-21.31L230.47-21.31Q232.99-24.70 232.99-28.66L232.99-28.66L232.99-28.66Q232.99-32.62 230.18-32.62L230.18-32.62L230.18-32.62Q228.17-32.62 226.58-30.38L226.58-30.38L226.58-30.38Q225.00-28.15 224.28-24.34L224.28-24.34L219.53 0L204.98 1.44L215.06-50.40L229.54-51.84L227.88-43.27L227.88-43.27Q226.80-37.22 225.36-34.13Z" fill="none" stroke="#d6ffc4" stroke-width="0.7"></path></g></g><style>text {
  font-size: 64px;
  font-family: Arial Black;
  dominant-baseline: central;
  text-anchor: middle;
}</style></svg>